<svg xmlns="http://www.w3.org/2000/svg" width="1588" height="673" viewBox="0 0 1588 673"><rect width="100%" height="100%" fill="#ffffff"/><text x="90" y="34" font-family="Inter, Helvetica, Arial, sans-serif" font-size="16" font-weight="700" fill="#1a1a1a">Sand mixing line - General Arrangement, front elevation</text><text x="90" y="54" font-family="Inter, Helvetica, Arial, sans-serif" font-size="11" fill="#8a8a8a">Heights above finished floor level. Level switches LSH/LSL interlock CV-01.</text><line x1="134.0" y1="512.4" x2="1454.0" y2="512.4" stroke="#1a1a1a" stroke-width="2.4"/><line x1="134.0" y1="129.6" x2="1454.0" y2="129.6" stroke="#5b6672" stroke-width="1.2" stroke-dasharray="9 5"/><text x="1392.4" y="119.9" font-family="Inter, Helvetica, Arial, sans-serif" font-size="10" font-weight="normal" text-anchor="end" fill="#5b6672">u/s ceiling +8.70</text><rect x="178.0" y="327.6" width="418.0" height="6.2" fill="#e8ebee" stroke="#1a1a1a" stroke-width="1.6"/><text x="387.0" y="303.4" font-family="Inter, Helvetica, Arial, sans-serif" font-size="11" font-weight="600" text-anchor="middle" fill="#5b6672">MEZZANINE  +4.20</text><line x1="204.4" y1="512.4" x2="204.4" y2="333.8" stroke="#5b6672" stroke-width="1.2"/><line x1="442.0" y1="512.4" x2="442.0" y2="333.8" stroke="#5b6672" stroke-width="1.2"/><line x1="578.4" y1="512.4" x2="578.4" y2="333.8" stroke="#5b6672" stroke-width="1.2"/><rect x="482.9" y="279.2" width="94.2" height="233.2" fill="none" stroke="#5b6672" stroke-width="1.2" stroke-dasharray="6 4"/><rect x="488.2" y="417.8" width="83.6" height="92.4" fill="#eef1f4" stroke="#1a1a1a" stroke-width="1.6"/><circle cx="530.0" cy="244.0" r="15" fill="#ffffff" stroke="#a8442a" stroke-width="1.3"/><text x="530.0" y="248.0" font-family="Inter, Helvetica, Arial, sans-serif" font-size="9.5" font-weight="600" text-anchor="middle" fill="#a8442a">LI-01</text><line x1="593.8" y1="512.4" x2="593.8" y2="327.6" stroke="#8a8a8a" stroke-width="0.8"/><line x1="589.8" y1="512.4" x2="597.8" y2="512.4" stroke="#8a8a8a" stroke-width="0.8"/><line x1="589.8" y1="327.6" x2="597.8" y2="327.6" stroke="#8a8a8a" stroke-width="0.8"/><text x="598.8" y="423.0" font-family="Inter, Helvetica, Arial, sans-serif" font-size="10" font-weight="normal" text-anchor="start" fill="#8a8a8a">4.20 travel</text><rect x="724.7" y="509.8" width="50.6" height="2.6" fill="#5b6672" stroke="#5b6672" stroke-width="1.0"/><line x1="731.5" y1="509.8" x2="731.5" y2="489.5" stroke="#5b6672" stroke-width="1.6"/><line x1="768.5" y1="509.8" x2="768.5" y2="489.5" stroke="#5b6672" stroke-width="1.6"/><polygon points="735.0,489.5 765.0,489.5 777.3,473.7 722.7,473.7" fill="#e6ece4" stroke="#1a1a1a" stroke-width="1.8"/><rect x="722.7" y="449.9" width="54.6" height="23.8" fill="#e6ece4" stroke="#1a1a1a" stroke-width="1.8"/><rect x="721.4" y="445.5" width="57.2" height="4.4" fill="#3a4048" stroke="#1a1a1a" stroke-width="1.4"/><rect x="725.4" y="461.4" width="49.3" height="13.2" fill="#c8a96a" stroke="none" stroke-width="0"/><circle cx="750.0" cy="402.4" r="15" fill="#ffffff" stroke="#a8442a" stroke-width="1.3"/><text x="750.0" y="406.4" font-family="Inter, Helvetica, Arial, sans-serif" font-size="9.5" font-weight="600" text-anchor="middle" fill="#a8442a">MX-01</text><line x1="663.3" y1="512.4" x2="663.3" y2="445.5" stroke="#8a8a8a" stroke-width="0.8"/><line x1="659.4" y1="512.4" x2="667.3" y2="512.4" stroke="#8a8a8a" stroke-width="0.8"/><line x1="659.4" y1="445.5" x2="667.3" y2="445.5" stroke="#8a8a8a" stroke-width="0.8"/><text x="668.3" y="482.0" font-family="Inter, Helvetica, Arial, sans-serif" font-size="10" font-weight="normal" text-anchor="start" fill="#8a8a8a">1.52 charge rim</text><polygon points="763.2,488.2 917.2,340.8 920.9,344.6 766.9,492.0" fill="#dfe4e9" stroke="#1a1a1a" stroke-width="1.6"/><line x1="809.4" y1="512.4" x2="809.4" y2="444.0" stroke="#5b6672" stroke-width="1.2"/><line x1="858.7" y1="512.4" x2="858.7" y2="396.8" stroke="#5b6672" stroke-width="1.2"/><line x1="901.8" y1="512.4" x2="901.8" y2="355.5" stroke="#5b6672" stroke-width="1.2"/><text x="827.0" y="390.3" font-family="Inter, Helvetica, Arial, sans-serif" font-size="10" font-weight="700" text-anchor="middle" fill="#a8442a">CV-01  43.75deg</text><line x1="915.0" y1="512.4" x2="915.0" y2="426.6" stroke="#5b6672" stroke-width="1.8"/><line x1="981.0" y1="512.4" x2="981.0" y2="426.6" stroke="#5b6672" stroke-width="1.8"/><line x1="912.8" y1="468.4" x2="983.2" y2="468.4" stroke="#5b6672" stroke-width="1.2"/><polygon points="910.6,393.6 985.4,393.6 956.8,426.6 939.2,426.6" fill="#eef1f4" stroke="#1a1a1a" stroke-width="1.8"/><rect x="910.6" y="343.0" width="74.8" height="50.6" fill="#eef1f4" stroke="#1a1a1a" stroke-width="1.8"/><rect x="912.8" y="361.9" width="70.4" height="31.7" fill="#c8a96a" stroke="none" stroke-width="0"/><rect x="908.8" y="340.4" width="78.3" height="2.6" fill="#c9d0d7" stroke="#1a1a1a" stroke-width="1.2"/><rect x="985.4" y="350.0" width="7.0" height="6.2" fill="#fff" stroke="#a8442a" stroke-width="1.2"/><text x="999.5" y="356.1" font-family="Inter, Helvetica, Arial, sans-serif" font-size="9.5" font-weight="600" text-anchor="start" fill="#a8442a">LSH</text><rect x="985.4" y="383.9" width="7.0" height="6.2" fill="#fff" stroke="#a8442a" stroke-width="1.2"/><text x="999.5" y="390.0" font-family="Inter, Helvetica, Arial, sans-serif" font-size="9.5" font-weight="600" text-anchor="start" fill="#a8442a">LSL</text><rect x="940.5" y="426.6" width="15.0" height="5.3" fill="#c9d0d7" stroke="#1a1a1a" stroke-width="1.4"/><circle cx="948.0" cy="312.2" r="15" fill="#ffffff" stroke="#a8442a" stroke-width="1.3"/><text x="948.0" y="316.2" font-family="Inter, Helvetica, Arial, sans-serif" font-size="9.5" font-weight="600" text-anchor="middle" fill="#a8442a">HP-01</text><line x1="1053.6" y1="512.4" x2="1053.6" y2="340.8" stroke="#8a8a8a" stroke-width="0.8"/><line x1="1049.6" y1="512.4" x2="1057.6" y2="512.4" stroke="#8a8a8a" stroke-width="0.8"/><line x1="1049.6" y1="340.8" x2="1057.6" y2="340.8" stroke="#8a8a8a" stroke-width="0.8"/><text x="1058.6" y="429.6" font-family="Inter, Helvetica, Arial, sans-serif" font-size="10" font-weight="normal" text-anchor="start" fill="#8a8a8a">3.90 overall</text><line x1="882.0" y1="512.4" x2="882.0" y2="431.9" stroke="#8a8a8a" stroke-width="0.8"/><line x1="878.0" y1="512.4" x2="886.0" y2="512.4" stroke="#8a8a8a" stroke-width="0.8"/><line x1="878.0" y1="431.9" x2="886.0" y2="431.9" stroke="#8a8a8a" stroke-width="0.8"/><text x="887.0" y="475.1" font-family="Inter, Helvetica, Arial, sans-serif" font-size="10" font-weight="normal" text-anchor="start" fill="#8a8a8a">1.83 spout</text><rect x="1135.0" y="477.2" width="66.0" height="30.8" fill="#eef1f4" stroke="#1a1a1a" stroke-width="1.8"/><rect x="1139.4" y="470.6" width="57.2" height="6.6" fill="#dfe4e9" stroke="#5b6672" stroke-width="1.2"/><polygon points="1149.5,426.6 1186.5,426.6 1175.0,437.6 1161.0,437.6" fill="#f7f2e6" stroke="#1a1a1a" stroke-width="1.8"/><line x1="1151.3" y1="470.6" x2="1151.3" y2="437.6" stroke="#5b6672" stroke-width="1.2"/><line x1="1184.7" y1="470.6" x2="1184.7" y2="437.6" stroke="#5b6672" stroke-width="1.2"/><circle cx="1168.0" cy="356.2" r="15" fill="#ffffff" stroke="#a8442a" stroke-width="1.3"/><text x="1168.0" y="360.2" font-family="Inter, Helvetica, Arial, sans-serif" font-size="9.5" font-weight="600" text-anchor="middle" fill="#a8442a">FL-01</text><line x1="1220.8" y1="512.4" x2="1220.8" y2="426.6" stroke="#8a8a8a" stroke-width="0.8"/><line x1="1216.8" y1="512.4" x2="1224.8" y2="512.4" stroke="#8a8a8a" stroke-width="0.8"/><line x1="1216.8" y1="426.6" x2="1224.8" y2="426.6" stroke="#8a8a8a" stroke-width="0.8"/><text x="1225.8" y="472.5" font-family="Inter, Helvetica, Arial, sans-serif" font-size="10" font-weight="normal" text-anchor="start" fill="#8a8a8a">1.95 infeed rim</text><rect x="1040.4" y="487.3" width="52.8" height="22.4" fill="#e9e2f0" stroke="#1a1a1a" stroke-width="1.6"/><rect x="1047.0" y="441.1" width="39.6" height="46.2" fill="#f2e2d2" stroke="#1a1a1a" stroke-width="1.6"/><line x1="1066.8" y1="441.1" x2="1066.8" y2="384.8" stroke="#a8442a" stroke-width="0.8"/><text x="1066.8" y="380.4" font-family="Inter, Helvetica, Arial, sans-serif" font-size="10" font-weight="700" text-anchor="middle" fill="#a8442a">873 kg full</text><line x1="1088.8" y1="422.6" x2="1143.8" y2="412.5" stroke="#a8442a" stroke-width="1.5" stroke-dasharray="7 4"/><text x="1121.8" y="399.3" font-family="Inter, Helvetica, Arial, sans-serif" font-size="10" font-weight="600" text-anchor="middle" fill="#a8442a" font-style="italic">lift beyond any cobot payload</text><text x="90" y="647" font-family="Inter, Helvetica, Arial, sans-serif" font-size="9.5" fill="#8a8a8a">Dimensions in metres, generated from layout.json. Representative geometry from the 3D model - NOT a surveyed plant drawing. Verify on site before procurement.</text></svg>