0
SECTION
2
ENTITIES
0
LINE
8
BUILDING
10
-15.0000
20
-10.0000
30
0.0
11
15.0000
21
-10.0000
31
0.0
0
LINE
8
BUILDING
10
15.0000
20
-10.0000
30
0.0
11
15.0000
21
10.0000
31
0.0
0
LINE
8
BUILDING
10
15.0000
20
10.0000
30
0.0
11
-15.0000
21
10.0000
31
0.0
0
LINE
8
BUILDING
10
-15.0000
20
10.0000
30
0.0
11
-15.0000
21
-10.0000
31
0.0
0
LINE
8
MEZZANINE
10
-14.0000
20
-10.0000
30
0.0
11
-4.5000
21
-10.0000
31
0.0
0
LINE
8
MEZZANINE
10
-4.5000
20
-10.0000
30
0.0
11
-4.5000
21
10.0000
31
0.0
0
LINE
8
MEZZANINE
10
-4.5000
20
10.0000
30
0.0
11
-14.0000
21
10.0000
31
0.0
0
LINE
8
MEZZANINE
10
-14.0000
20
10.0000
30
0.0
11
-14.0000
21
-10.0000
31
0.0
0
TEXT
8
TEXT
10
-13.6000
20
8.4000
30
0.0
40
0.420
1
MEZZANINE OVER +4.20
0
LINE
8
EQUIPMENT
10
-6.9500
20
-7.9500
30
0.0
11
-5.0500
21
-7.9500
31
0.0
0
LINE
8
EQUIPMENT
10
-5.0500
20
-7.9500
30
0.0
11
-5.0500
21
-6.0500
31
0.0
0
LINE
8
EQUIPMENT
10
-5.0500
20
-6.0500
30
0.0
11
-6.9500
21
-6.0500
31
0.0
0
LINE
8
EQUIPMENT
10
-6.9500
20
-6.0500
30
0.0
11
-6.9500
21
-7.9500
31
0.0
0
TEXT
8
TEXT
10
-6.9500
20
-5.7500
30
0.0
40
0.420
1
LI-01
0
CIRCLE
8
EQUIPMENT
10
-1.0000
20
0.0000
30
0.0
40
0.6200
0
TEXT
8
TEXT
10
-1.5000
20
1.0000
30
0.0
40
0.420
1
MX-01
0
LINE
8
EQUIPMENT
10
-0.7000
20
-1.5500
30
0.0
11
2.8000
21
-1.5500
31
0.0
0
LINE
8
EQUIPMENT
10
2.8000
20
-1.5500
30
0.0
11
2.8000
21
-1.0500
31
0.0
0
LINE
8
EQUIPMENT
10
2.8000
20
-1.0500
30
0.0
11
-0.7000
21
-1.0500
31
0.0
0
LINE
8
EQUIPMENT
10
-0.7000
20
-1.0500
30
0.0
11
-0.7000
21
-1.5500
31
0.0
0
TEXT
8
TEXT
10
-0.7000
20
-2.4000
30
0.0
40
0.420
1
CV-01
0
CIRCLE
8
EQUIPMENT
10
3.5000
20
0.0000
30
0.0
40
0.8500
0
CIRCLE
8
EQUIPMENT
10
3.5000
20
0.0000
30
0.0
40
0.2000
0
TEXT
8
TEXT
10
3.0000
20
1.3000
30
0.0
40
0.420
1
HP-01
0
LINE
8
EQUIPMENT
10
7.7500
20
-0.3900
30
0.0
11
9.2500
21
-0.3900
31
0.0
0
LINE
8
EQUIPMENT
10
9.2500
20
-0.3900
30
0.0
11
9.2500
21
0.3900
31
0.0
0
LINE
8
EQUIPMENT
10
9.2500
20
0.3900
30
0.0
11
7.7500
21
0.3900
31
0.0
0
LINE
8
EQUIPMENT
10
7.7500
20
0.3900
30
0.0
11
7.7500
21
-0.3900
31
0.0
0
TEXT
8
TEXT
10
8.0000
20
0.9000
30
0.0
40
0.420
1
FL-01
0
LINE
8
AMR_ROUTE
10
-6.0000
20
-5.4000
30
0.0
11
-6.0000
21
2.6000
31
0.0
0
LINE
8
AMR_ROUTE
10
-6.0000
20
2.6000
30
0.0
11
8.5000
21
2.6000
31
0.0
0
LINE
8
AMR_ROUTE
10
8.5000
20
2.6000
30
0.0
11
8.5000
21
1.0000
31
0.0
0
TEXT
8
TEXT
10
0.0000
20
3.0000
30
0.0
40
0.420
1
AMR ROUTE
0
ENDSEC
0
EOF
